<svg width="36" height="45" viewBox="0 0 36 45" fill="none" xmlns="http://www.w3.org/2000/svg">
<g clip-path="url(#clip0_2_105)">
<path d="M11.603 38.3284C9.57006 36.4701 8.97661 32.5655 9.82358 29.7367C11.2922 31.5202 13.3271 32.0852 15.4348 32.4041C18.6887 32.8962 21.8843 32.7121 24.9069 31.2249C25.2527 31.0546 25.5723 30.8282 25.9501 30.5989C26.2337 31.4218 26.3075 32.2525 26.2085 33.098C25.9676 35.1571 24.9429 36.7477 23.313 37.9534C22.6613 38.4357 21.9716 38.8668 21.2985 39.3215C19.2306 40.7192 18.6712 42.358 19.4482 44.7418C19.4667 44.8002 19.4832 44.8583 19.5249 45C18.4691 44.5273 17.6979 43.8393 17.1103 42.9346C16.4896 41.9801 16.1944 40.924 16.1788 39.7812C16.171 39.2251 16.171 38.664 16.0962 38.1158C15.9136 36.7792 15.2862 36.1807 14.1041 36.1463C12.8909 36.1109 11.9313 36.8608 11.6768 38.042C11.6574 38.1325 11.6292 38.2221 11.601 38.3274L11.603 38.3284Z" fill="white"/>
<path d="M11.603 38.3284C9.57006 36.4701 8.97661 32.5655 9.82358 29.7367C11.2922 31.5202 13.3271 32.0852 15.4348 32.4041C18.6887 32.8962 21.8843 32.7121 24.9069 31.2249C25.2527 31.0546 25.5723 30.8282 25.9501 30.5989C26.2337 31.4218 26.3075 32.2525 26.2085 33.098C25.9676 35.1571 24.9429 36.7477 23.313 37.9534C22.6613 38.4357 21.9716 38.8668 21.2985 39.3215C19.2306 40.7192 18.6712 42.358 19.4482 44.7418C19.4667 44.8002 19.4832 44.8583 19.5249 45C18.4691 44.5273 17.6979 43.8393 17.1103 42.9346C16.4896 41.9801 16.1944 40.924 16.1788 39.7812C16.171 39.2251 16.171 38.664 16.0962 38.1158C15.9136 36.7792 15.2862 36.1807 14.1041 36.1463C12.8909 36.1109 11.9313 36.8608 11.6768 38.042C11.6574 38.1325 11.6292 38.2221 11.601 38.3274L11.603 38.3284Z" fill="url(#paint0_linear_2_105)"/>
<path d="M0 29.2654C0 29.2654 6.01987 26.3329 12.0566 26.3329L16.608 12.2469C16.7784 11.5657 17.2759 11.1028 17.8376 11.1028C18.3993 11.1028 18.8968 11.5657 19.0673 12.2469L23.6187 26.3329C30.7683 26.3329 35.6752 29.2654 35.6752 29.2654C35.6752 29.2654 25.45 1.40986 25.43 1.35397C25.1366 0.530411 24.6411 0 23.9732 0H11.7031C11.0352 0 10.5597 0.530411 10.2463 1.35397C10.2242 1.40881 0 29.2654 0 29.2654Z" fill="white"/>
</g>
<defs>
<linearGradient id="paint0_linear_2_105" x1="9.45008" y1="45" x2="29.0797" y2="35.7253" gradientUnits="userSpaceOnUse">
<stop stop-color="#D83333"/>
<stop offset="1" stop-color="#F041FF"/>
</linearGradient>
<clipPath id="clip0_2_105">
<rect width="35.7477" height="45" fill="white"/>
</clipPath>
</defs>
</svg>
