<svg width="51" height="51" viewBox="0 0 51 51" fill="none" xmlns="http://www.w3.org/2000/svg">
<g clip-path="url(#clip0_2_100)">
<path d="M50.7477 39.225C50.02 39.5002 49.2167 39.4996 48.4894 39.2233C47.7621 38.947 47.1611 38.414 46.7998 37.725L39.6123 27.7854L38.5706 26.3958L30.231 37.7375C29.8914 38.3976 29.323 38.9114 28.6321 39.1829C27.9412 39.4544 27.175 39.4649 26.4769 39.2125L37.2227 24.7958L27.2269 11.7729C27.9456 11.5139 28.7316 11.5105 29.4526 11.7632C30.1736 12.0159 30.7855 12.5093 31.1852 13.1604L38.6352 23.2229L46.1269 13.2021C46.4691 12.5537 47.0377 12.0537 47.7244 11.7971C48.4112 11.5406 49.1683 11.5453 49.8519 11.8104L45.9727 16.9583L40.7185 23.7979C40.5726 23.9281 40.4559 24.0876 40.3759 24.266C40.296 24.4445 40.2547 24.6378 40.2547 24.8333C40.2547 25.0289 40.296 25.2222 40.3759 25.4006C40.4559 25.5791 40.5726 25.7386 40.7185 25.8687L50.7269 39.2271L50.7477 39.225ZM0.751872 24.6167L1.62687 20.2937C4.03104 11.7458 13.831 8.18958 20.5727 13.4812C24.5206 16.5833 25.506 20.975 25.3123 25.925H3.07271C2.71229 34.7646 9.09146 40.1021 17.2477 37.375C18.5699 36.8991 19.7534 36.1026 20.6922 35.0569C21.631 34.0112 22.2957 32.749 22.6269 31.3833C23.0581 29.9958 23.7685 29.7583 25.0727 30.1583C24.8554 31.8508 24.2571 33.4719 23.3229 34.8998C22.3886 36.3277 21.1427 37.5252 19.679 38.4021C17.2611 39.7246 14.4869 40.2488 11.7532 39.8997C9.01942 39.5506 6.46604 38.3461 4.45812 36.4583C2.47277 34.2237 1.27286 31.401 1.04146 28.4208C1.04146 27.9312 0.874789 27.4729 0.762289 27.0333C0.752147 26.2285 0.747286 25.4236 0.747706 24.6187L0.751872 24.6167ZM3.09979 24.0208H23.2123C23.0873 17.6125 19.0435 13.0667 13.6498 13.025C7.64562 12.9417 3.34979 17.3875 3.08521 23.9917L3.09979 24.0208Z" fill="white" stroke="white" stroke-width="0.5"/>
</g>
<defs>
<clipPath id="clip0_2_100">
<rect width="50" height="50" fill="white" transform="translate(0.747681 0.5)"/>
</clipPath>
</defs>
</svg>
