<svg width="29" height="43" viewBox="0 0 29 43" fill="none" xmlns="http://www.w3.org/2000/svg">
<g clip-path="url(#clip0_13_2)">
<path d="M7.75049 42.5C11.6145 42.5 14.7505 39.364 14.7505 35.5V28.5H7.75049C3.88649 28.5 0.750488 31.636 0.750488 35.5C0.750488 39.364 3.88649 42.5 7.75049 42.5Z" fill="#0ACF83"/>
<path d="M0.750488 21.5C0.750488 17.636 3.88649 14.5 7.75049 14.5H14.7505V28.5H7.75049C3.88649 28.5 0.750488 25.364 0.750488 21.5Z" fill="#A259FF"/>
<path d="M0.750336 7.5C0.750336 3.636 3.88634 0.5 7.75033 0.5H14.7503V14.5H7.75033C3.88634 14.5 0.750336 11.364 0.750336 7.5Z" fill="#F24E1E"/>
<path d="M14.7505 0.5H21.7505C25.6145 0.5 28.7505 3.636 28.7505 7.5C28.7505 11.364 25.6145 14.5 21.7505 14.5H14.7505V0.5Z" fill="#FF7262"/>
<path d="M28.7505 21.5C28.7505 25.364 25.6145 28.5 21.7505 28.5C17.8865 28.5 14.7505 25.364 14.7505 21.5C14.7505 17.636 17.8865 14.5 21.7505 14.5C25.6145 14.5 28.7505 17.636 28.7505 21.5Z" fill="#1ABCFE"/>
</g>
<defs>
<clipPath id="clip0_13_2">
<rect width="28.0056" height="42" fill="white" transform="translate(0.747681 0.5)"/>
</clipPath>
</defs>
</svg>
