<svg width="50" height="51" viewBox="0 0 50 51" fill="none" xmlns="http://www.w3.org/2000/svg">
<g clip-path="url(#clip0_2_43)">
<mask id="mask0_2_43" style="mask-type:luminance" maskUnits="userSpaceOnUse" x="0" y="0" width="50" height="51">
<path d="M0 0.561417H49.9386V50.5H0V0.561417Z" fill="white"/>
</mask>
<g mask="url(#mask0_2_43)">
<path d="M48.9978 23.3071L27.1934 1.50436C26.8947 1.20548 26.5401 0.968387 26.1497 0.806624C25.7594 0.64486 25.341 0.5616 24.9184 0.5616C24.4959 0.5616 24.0775 0.64486 23.6871 0.806624C23.2968 0.968387 22.9421 1.20548 22.6434 1.50436L18.1173 6.03262L23.8597 11.775C24.5348 11.5457 25.2606 11.5099 25.955 11.6717C26.6494 11.8334 27.2847 12.1862 27.7891 12.6902C28.2962 13.1979 28.6502 13.838 28.8106 14.5374C28.971 15.2368 28.9313 15.9672 28.6961 16.6451L34.2325 22.1799C34.9106 21.9444 35.6413 21.9047 36.3409 22.0654C37.0405 22.2262 37.6807 22.5808 38.188 23.0886C38.5433 23.4439 38.8252 23.8657 39.0176 24.33C39.2099 24.7942 39.3089 25.2918 39.3089 25.7943C39.3089 26.2968 39.2099 26.7944 39.0176 27.2587C38.8252 27.7229 38.5433 28.1447 38.188 28.5C37.4695 29.2177 36.4956 29.6208 35.4801 29.6208C34.4646 29.6208 33.4906 29.2177 32.7722 28.5C32.2385 27.9654 31.8749 27.2849 31.7271 26.5441C31.5794 25.8034 31.654 25.0354 31.9418 24.337L26.7787 19.1756V32.7609C27.3237 33.0301 27.7967 33.4252 28.1585 33.9136C28.5203 34.402 28.7606 34.9696 28.8594 35.5693C28.9582 36.169 28.9127 36.7837 28.7267 37.3623C28.5406 37.941 28.2194 38.467 27.7896 38.8968C27.4343 39.2521 27.0125 39.534 26.5482 39.7263C26.084 39.9187 25.5864 40.0176 25.0839 40.0176C24.5814 40.0176 24.0838 39.9187 23.6196 39.7263C23.1553 39.534 22.7335 39.2521 22.3782 38.8968C22.0227 38.5415 21.7408 38.1196 21.5484 37.6553C21.356 37.191 21.257 36.6934 21.257 36.1908C21.257 35.6882 21.356 35.1906 21.5484 34.7263C21.7408 34.262 22.0227 33.8401 22.3782 33.4848C22.7362 33.126 23.1618 32.8417 23.6304 32.6484V18.9381C23.1637 18.7459 22.7397 18.4634 22.3826 18.1068C22.0255 17.7502 21.7423 17.3266 21.5494 16.8603C21.3565 16.3939 21.2576 15.8941 21.2584 15.3894C21.2593 14.8848 21.3598 14.3853 21.5543 13.9196L15.8923 8.25654L0.940147 23.2049C0.337624 23.8086 -0.000770569 24.6267 -0.000770569 25.4796C-0.000770569 26.3326 0.337624 27.1507 0.940147 27.7544L22.7456 49.5598C23.3493 50.1622 24.1672 50.5004 25.02 50.5004C25.8728 50.5004 26.6908 50.1622 27.2945 49.5598L48.9978 27.8565C49.6003 27.2528 49.9387 26.4347 49.9387 25.5818C49.9387 24.7289 49.6003 23.9108 48.9978 23.3071Z" fill="#F03C2E"/>
</g>
</g>
<defs>
<clipPath id="clip0_2_43">
<rect width="50" height="50" fill="white" transform="translate(0 0.5)"/>
</clipPath>
</defs>
</svg>
