<svg width="50" height="49" viewBox="0 0 50 49" fill="none" xmlns="http://www.w3.org/2000/svg">
<circle cx="25.3364" cy="25" r="24" fill="white"/>
<path fill-rule="evenodd" clip-rule="evenodd" d="M25 0C11.1898 0 0 11.1898 0 25C0 36.0433 7.16146 45.4183 17.098 48.7223C18.3512 48.9502 18.807 48.1852 18.807 47.5179C18.807 46.9238 18.7826 45.3532 18.7744 43.2699C11.8164 44.7754 10.3516 39.917 10.3516 39.917C9.21224 37.028 7.5765 36.2549 7.5765 36.2549C5.30599 34.7087 7.7474 34.7412 7.7474 34.7412C10.2539 34.9202 11.5723 37.3128 11.5723 37.3128C13.8021 41.1377 17.4235 40.0309 18.8477 39.3962C19.0755 37.7767 19.7266 36.6781 20.4346 36.0514C14.8844 35.4248 9.04948 33.2764 9.04948 23.6979C9.04948 20.9635 10.026 18.7337 11.6211 16.984C11.3688 16.3574 10.5062 13.8102 11.8652 10.3678C11.8652 10.3678 13.9648 9.70052 18.7419 12.9313C20.7357 12.3779 22.876 12.1012 25 12.0931C27.124 12.1012 29.2643 12.3779 31.2581 12.9313C36.0352 9.70052 38.1266 10.3678 38.1266 10.3678C39.4938 13.8102 38.6393 16.3574 38.3789 16.984C39.9821 18.7337 40.9424 20.9635 40.9424 23.6979C40.9424 33.3008 35.0993 35.4085 29.5329 36.0352C30.4281 36.8001 31.2256 38.3301 31.2256 40.6576C31.2256 44.0023 31.2012 46.696 31.2012 47.5179C31.2012 48.1852 31.6488 48.9665 32.9183 48.7223C42.8467 45.4102 50 36.0433 50 25C50 11.1898 38.8102 0 25 0Z" fill="black"/>
</svg>
