<svg width="45" height="45" viewBox="0 0 45 45" fill="none" xmlns="http://www.w3.org/2000/svg">
<g clip-path="url(#clip0_2_18)">
<path d="M0 0H45V45H0V0Z" fill="#F7DF1E"/>
<path d="M11.8321 37.6053L15.2759 35.5212C15.9402 36.6991 16.5446 37.6958 17.9942 37.6958C19.3838 37.6958 20.2599 37.1522 20.2599 35.0379V20.6594H24.4887V35.0977C24.4887 39.4777 21.9213 41.4714 18.1755 41.4714C14.7926 41.4714 12.8289 39.7193 11.8321 37.6049" fill="black"/>
<path d="M26.7857 37.1521L30.229 35.1585C31.1354 36.6388 32.3135 37.7261 34.3976 37.7261C36.1499 37.7261 37.2672 36.8501 37.2672 35.6418C37.2672 34.1919 36.1194 33.6783 34.1861 32.8328L33.1292 32.3794C30.0781 31.0807 28.0542 29.4496 28.0542 26.0059C28.0542 22.8342 30.4707 20.4176 34.2467 20.4176C36.9351 20.4176 38.8684 21.3541 40.2577 23.8009L36.9651 25.9152C36.2401 24.6164 35.455 24.103 34.2468 24.103C33.0083 24.103 32.2229 24.8884 32.2229 25.9152C32.2229 27.1839 33.0083 27.6976 34.8205 28.483L35.8776 28.9361C39.4723 30.4767 41.4962 32.0473 41.4962 35.5814C41.4962 39.3876 38.5058 41.4717 34.4884 41.4717C30.5615 41.4717 28.024 39.599 26.7857 37.1521Z" fill="black"/>
</g>
<defs>
<clipPath id="clip0_2_18">
<rect width="45" height="45" fill="white"/>
</clipPath>
</defs>
</svg>
