<svg width="50" height="51" viewBox="0 0 50 51" fill="none" xmlns="http://www.w3.org/2000/svg">
<path d="M25.9687 47.375L24.7953 46.9859C24.7953 46.9859 24.9516 41.0484 22.8031 40.6312C21.3969 38.9937 23.0109 -29.2766 28.1516 40.3984C27.1762 40.8932 26.4299 41.7458 26.0687 42.7781C25.8752 44.3027 25.8417 45.8434 25.9687 47.375Z" fill="url(#paint0_linear_2_36)"/>
<path d="M26.6031 41.6391C29.7275 39.2871 32.1202 36.0968 33.5031 32.4389C34.8861 28.781 35.2025 24.8056 34.4156 20.975C32.1187 10.8422 26.6797 7.51093 26.0938 6.23906C25.5882 5.44708 25.1567 4.61021 24.8047 3.73906L25.2375 31.9719C25.2375 31.9719 24.3406 40.6 26.6031 41.6391Z" fill="url(#paint1_linear_2_36)"/>
<path d="M24.1984 42.0141C24.1984 42.0141 14.6344 35.5 15.1875 23.9766C15.2391 20.5026 16.0356 17.0801 17.5233 13.9403C19.011 10.8006 21.1551 8.01664 23.8109 5.77656C24.1213 5.51289 24.3679 5.18231 24.5321 4.80966C24.6964 4.43701 24.7741 4.03198 24.7594 3.625C25.3547 4.90625 25.2578 22.7547 25.3203 24.8422C25.5625 32.9625 24.8687 40.4812 24.1984 42.0141Z" fill="url(#paint2_linear_2_36)"/>
<defs>
<linearGradient id="paint0_linear_2_36" x1="18.0807" y1="25.8942" x2="31.5677" y2="30.471" gradientUnits="userSpaceOnUse">
<stop offset="0.231" stop-color="#999875"/>
<stop offset="0.563" stop-color="#9B9977"/>
<stop offset="0.683" stop-color="#A09F7E"/>
<stop offset="0.768" stop-color="#A9A889"/>
<stop offset="0.837" stop-color="#B7B69A"/>
<stop offset="0.896" stop-color="#C9C7B0"/>
<stop offset="0.948" stop-color="#DEDDCB"/>
<stop offset="0.994" stop-color="#F8F6EB"/>
<stop offset="1" stop-color="#FBF9EF"/>
</linearGradient>
<linearGradient id="paint1_linear_2_36" x1="23.0265" y1="3.53732" x2="28.989" y2="40.77" gradientUnits="userSpaceOnUse">
<stop stop-color="#48A547"/>
<stop offset="1" stop-color="#3F9143"/>
</linearGradient>
<linearGradient id="paint2_linear_2_36" x1="14.3648" y1="25.1172" x2="30.3658" y2="19.7585" gradientUnits="userSpaceOnUse">
<stop stop-color="#41A247"/>
<stop offset="0.352" stop-color="#4BA74B"/>
<stop offset="0.956" stop-color="#67B554"/>
<stop offset="1" stop-color="#69B655"/>
</linearGradient>
</defs>
</svg>
