<svg width="50" height="51" viewBox="0 0 50 51" fill="none" xmlns="http://www.w3.org/2000/svg">
<path d="M35.7363 18.1687L35.7188 18.1612C35.7088 18.1575 35.6988 18.1537 35.69 18.145C35.6757 18.1296 35.6651 18.1111 35.659 18.0909C35.6529 18.0708 35.6516 18.0495 35.655 18.0287L36.6213 12.1212L41.1525 16.6537L36.44 18.6587C36.4269 18.664 36.4129 18.6666 36.3988 18.6662H36.38C36.3738 18.6625 36.3675 18.6575 36.355 18.645C36.1796 18.4497 35.9699 18.2883 35.7363 18.1687ZM42.3088 17.8087L47.1538 22.6537C48.16 23.6612 48.6638 24.1637 48.8475 24.7462C48.875 24.8325 48.8975 24.9187 48.915 25.0075L37.3363 20.1037C37.33 20.1012 37.3238 20.0987 37.3175 20.0962C37.2713 20.0775 37.2175 20.0562 37.2175 20.0087C37.2175 19.9612 37.2725 19.9387 37.3188 19.92L37.3338 19.9137L42.3088 17.8087ZM48.7175 26.5625C48.4675 27.0325 47.98 27.52 47.155 28.3462L41.6925 33.8075L34.6275 32.3362L34.59 32.3287C34.5275 32.3187 34.4613 32.3075 34.4613 32.2512C34.4344 31.9598 34.3479 31.677 34.207 31.4204C34.0662 31.1639 33.874 30.9391 33.6425 30.76C33.6138 30.7312 33.6213 30.6862 33.63 30.645C33.63 30.6387 33.63 30.6325 33.6325 30.6275L34.9613 22.47L34.9663 22.4425C34.9738 22.38 34.985 22.3075 35.0413 22.3075C35.326 22.2721 35.6009 22.1803 35.8498 22.0376C36.0988 21.8949 36.3168 21.7041 36.4913 21.4762C36.5025 21.4637 36.51 21.45 36.525 21.4425C36.565 21.4237 36.6125 21.4425 36.6538 21.46L48.7175 26.5625ZM40.4363 35.0637L31.4538 44.0462L32.9913 34.5962L32.9938 34.5837C32.995 34.5712 32.9975 34.5587 33.0013 34.5475C33.0138 34.5175 33.0463 34.505 33.0775 34.4925L33.0925 34.4862C33.4292 34.3426 33.7269 34.1211 33.9613 33.84C33.9913 33.805 34.0275 33.7712 34.0738 33.765C34.0858 33.763 34.098 33.763 34.11 33.765L40.435 35.065L40.4363 35.0637ZM29.5525 45.9475L28.54 46.96L17.3463 30.7825C17.3422 30.7766 17.338 30.7707 17.3338 30.765C17.3163 30.7412 17.2975 30.7175 17.3013 30.69C17.3025 30.67 17.315 30.6525 17.3288 30.6375L17.3413 30.6212C17.375 30.5712 17.4038 30.5212 17.435 30.4675L17.46 30.4237L17.4638 30.42C17.4813 30.39 17.4975 30.3612 17.5275 30.345C17.5538 30.3325 17.59 30.3375 17.6188 30.3437L30.02 32.9012C30.0547 32.9066 30.0874 32.9208 30.115 32.9425C30.1313 32.9587 30.135 32.9762 30.1388 32.9962C30.2253 33.3235 30.3863 33.6264 30.6092 33.8812C30.8321 34.136 31.1109 34.3358 31.4238 34.465C31.4588 34.4825 31.4438 34.5212 31.4275 34.5625C31.4194 34.5806 31.4131 34.5994 31.4088 34.6187C31.2525 35.5687 29.9125 43.7412 29.5525 45.9475ZM27.4375 48.0612C26.6913 48.8 26.2513 49.1912 25.7538 49.3487C25.2632 49.5039 24.7368 49.5039 24.2463 49.3487C23.6638 49.1637 23.16 48.6612 22.1538 47.6537L10.9125 36.4125L13.8488 31.8587C13.8625 31.8362 13.8763 31.8162 13.8988 31.8C13.93 31.7775 13.975 31.7875 14.0125 31.8C14.6865 32.0033 15.4101 31.9667 16.06 31.6962C16.0938 31.6837 16.1275 31.675 16.1538 31.6987C16.1669 31.7107 16.1786 31.7241 16.1888 31.7387L27.4375 48.0612ZM9.82876 35.3287L7.25001 32.75L12.3425 30.5775C12.3555 30.5718 12.3696 30.5688 12.3838 30.5687C12.4263 30.5687 12.4513 30.6112 12.4738 30.65C12.5249 30.7287 12.5791 30.8055 12.6363 30.88L12.6525 30.9C12.6675 30.9212 12.6575 30.9425 12.6425 30.9625L9.82876 35.3287ZM6.10876 31.6087L2.84626 28.3462C2.29126 27.7912 1.88876 27.3887 1.60876 27.0425L11.5288 29.1C11.5412 29.1023 11.5537 29.1044 11.5663 29.1062C11.6275 29.1162 11.695 29.1275 11.695 29.185C11.695 29.2475 11.6213 29.2762 11.5588 29.3L11.53 29.3125L6.10876 31.6087ZM1.03876 25.365C1.05006 25.1548 1.08786 24.9469 1.15126 24.7462C1.33626 24.1637 1.83876 23.6612 2.84626 22.6537L7.02126 18.4787C8.94355 21.2686 10.8711 24.0549 12.8038 26.8375C12.8375 26.8825 12.875 26.9325 12.8363 26.97C12.6538 27.1712 12.4713 27.3912 12.3425 27.63C12.3285 27.6607 12.307 27.6873 12.28 27.7075C12.2638 27.7175 12.2463 27.7137 12.2275 27.71H12.225L1.03876 25.365ZM8.13876 17.3612L13.7525 11.7475C14.28 11.9787 16.2 12.79 17.9175 13.515C19.2175 14.065 20.4025 14.565 20.775 14.7275C20.8125 14.7425 20.8463 14.7575 20.8625 14.795C20.8725 14.8175 20.8675 14.8462 20.8625 14.87C20.7736 15.2752 20.7869 15.6962 20.901 16.095C21.0151 16.4939 21.2265 16.8581 21.5163 17.155C21.5538 17.1925 21.5163 17.2462 21.4838 17.2925L21.4663 17.3187L15.7663 26.1475C15.7513 26.1725 15.7375 26.1937 15.7125 26.21C15.6825 26.2287 15.64 26.22 15.605 26.2112C15.3833 26.1532 15.1554 26.1221 14.9263 26.1187C14.7213 26.1187 14.4988 26.1562 14.2738 26.1975C14.2488 26.2012 14.225 26.2062 14.205 26.1912C14.1829 26.1732 14.1639 26.1517 14.1488 26.1275L8.13876 17.3612ZM14.8863 10.6137L22.1538 3.34625C23.16 2.34 23.6638 1.83625 24.2463 1.6525C24.7368 1.49739 25.2632 1.49739 25.7538 1.6525C26.3363 1.83625 26.84 2.34 27.8463 3.34625L29.4213 4.92125L24.2525 12.9262C24.2397 12.9496 24.2223 12.97 24.2013 12.9862C24.17 13.0075 24.1263 12.9987 24.0888 12.9862C23.6812 12.8626 23.2497 12.8401 22.8316 12.9206C22.4134 13.0012 22.0211 13.1825 21.6888 13.4487C21.655 13.4837 21.605 13.4637 21.5625 13.445C20.8875 13.1512 15.6375 10.9325 14.8863 10.6137ZM30.5188 6.01875L35.2913 10.7912L34.1413 17.9137V17.9325C34.1402 17.9487 34.1369 17.9647 34.1313 17.98C34.1188 18.005 34.0938 18.01 34.0688 18.0175C33.8229 18.092 33.5913 18.2073 33.3838 18.3587C33.3748 18.3651 33.3665 18.3722 33.3588 18.38C33.345 18.395 33.3313 18.4087 33.3088 18.4112C33.2904 18.4118 33.2722 18.4088 33.255 18.4025L25.9825 15.3125L25.9688 15.3062C25.9225 15.2875 25.8675 15.265 25.8675 15.2175C25.8248 14.8122 25.6924 14.4215 25.48 14.0737C25.445 14.0162 25.4063 13.9562 25.4363 13.8975L30.5188 6.01875ZM25.6038 16.7762L32.4213 19.6637C32.4588 19.6812 32.5 19.6975 32.5163 19.7362C32.5228 19.7596 32.5228 19.7842 32.5163 19.8075C32.4963 19.9075 32.4788 20.0212 32.4788 20.1362V20.3275C32.4788 20.375 32.43 20.395 32.385 20.4137L32.3713 20.4187C31.2913 20.88 17.2088 26.885 17.1875 26.885C17.1663 26.885 17.1438 26.885 17.1225 26.8637C17.085 26.8262 17.1225 26.7737 17.1563 26.7262C17.1622 26.718 17.1681 26.7097 17.1738 26.7012L22.7763 18.0262L22.7863 18.0112C22.8188 17.9587 22.8563 17.9 22.9163 17.9L22.9725 17.9087C23.1 17.9262 23.2125 17.9425 23.3263 17.9425C24.1763 17.9425 24.9638 17.5287 25.4388 16.8212C25.4501 16.8024 25.4644 16.7855 25.4813 16.7712C25.515 16.7462 25.565 16.7587 25.6038 16.7762ZM17.7963 28.2575L33.1463 21.7112C33.1463 21.7112 33.1688 21.7112 33.19 21.7325C33.2738 21.8162 33.345 21.8725 33.4138 21.925L33.4475 21.9462C33.4788 21.9637 33.51 21.9837 33.5125 22.0162C33.5125 22.0287 33.5125 22.0362 33.51 22.0475L32.195 30.125L32.19 30.1575C32.1813 30.22 32.1725 30.2912 32.1138 30.2912C31.7632 30.3149 31.4236 30.4237 31.1246 30.6082C30.8255 30.7927 30.576 31.0473 30.3975 31.35L30.3913 31.36C30.3738 31.3887 30.3575 31.4162 30.3288 31.4312C30.3025 31.4437 30.2688 31.4387 30.2413 31.4325L18 28.9075C17.9875 28.905 17.81 28.2587 17.7963 28.2575Z" fill="url(#paint0_radial_1_8)"/>
<defs>
<radialGradient id="paint0_radial_1_8" cx="0" cy="0" r="1" gradientUnits="userSpaceOnUse" gradientTransform="translate(-0.568696 24.8245) rotate(90) scale(4787.62 5527.48)">
<stop stop-color="#20C6B7"/>
<stop offset="1" stop-color="#4D9ABF"/>
</radialGradient>
</defs>
</svg>
