<svg width="53" height="53" viewBox="0 0 53 53" fill="none" xmlns="http://www.w3.org/2000/svg">
<path d="M28.442 3.80726C27.2663 3.1461 25.7336 3.14906 24.557 3.80726C18.6641 7.05939 12.771 10.3125 6.87701 13.5631C5.73011 14.1665 4.95656 15.3981 4.9689 16.6765V36.3262C4.96061 37.6295 5.77405 38.873 6.95053 39.4681C8.64348 40.3688 10.2883 41.3609 12.0119 42.2016C14.0028 43.1799 16.4936 43.3962 18.5089 42.376C20.1448 41.5305 20.8714 39.6498 20.8692 37.9215C20.8825 31.4366 20.8714 24.9516 20.8744 18.4665C20.9133 18.1783 20.6968 17.8703 20.3825 17.8772C19.6294 17.8653 18.8753 17.8703 18.1222 17.8752C17.8376 17.8484 17.5599 18.0848 17.5814 18.3708C17.5713 24.8139 17.5834 31.2591 17.5753 37.7032C17.5917 38.5946 16.9895 39.4512 16.1304 39.7523C14.1464 40.4478 8.48328 36.7707 8.48328 36.7707C8.27545 36.6745 8.14348 36.4491 8.16385 36.2252C8.16385 29.7423 8.16486 23.2592 8.16385 16.7773C8.13528 16.516 8.29635 16.2806 8.53634 16.1739C14.4099 12.9409 20.2804 9.6999 26.154 6.46494C26.3581 6.32878 26.6424 6.3292 26.846 6.46594C32.7195 9.6999 38.5911 12.938 44.4657 16.1711C44.7065 16.2776 44.8607 16.517 44.8362 16.7773C44.8352 23.2592 44.8382 29.7423 44.8342 36.2243C44.8516 36.4537 44.733 36.676 44.5188 36.7767C38.7001 39.9921 32.8151 43.1039 27.049 46.4128C26.7975 46.557 26.5124 46.7205 26.2305 46.5615C24.7142 45.7228 23.2163 44.8514 21.705 44.0046C21.5407 43.9021 21.3315 43.858 21.1601 43.9728C20.4825 44.3299 19.8452 44.619 19.0671 44.9271C17.9743 45.3597 18.1489 45.5366 19.1345 46.1108C20.9019 47.111 22.6722 48.1073 24.4396 49.1085C25.6031 49.8346 27.1665 49.8863 28.3674 49.2153C34.2614 45.9672 40.1535 42.7154 46.0486 39.4673C47.2218 38.8689 48.0394 37.6303 48.0311 36.326V16.6765C48.0425 15.4241 47.2985 14.2144 46.1862 13.6021C40.2727 10.3341 34.3564 7.07325 28.442 3.80726Z" fill="#8CC84B"/>
<path d="M37.335 18.5603C35.0217 17.3227 32.2697 17.2568 29.699 17.4186C27.8419 17.6021 25.8887 18.1146 24.5357 19.4459C23.1479 20.7841 22.8458 22.9452 23.505 24.6922C23.9774 25.9268 25.1664 26.7296 26.396 27.1542C27.9799 27.7134 29.6434 27.8863 31.3074 28.0592C32.8252 28.2169 34.3435 28.3747 35.8023 28.8257C36.3983 29.0231 37.0922 29.3252 37.2747 29.9737C37.4433 30.7415 37.2585 31.634 36.6351 32.1675C34.6549 33.7348 29.1465 33.4947 27.19 32.2611C26.399 31.7356 26.0581 30.8053 25.9195 29.9187C25.9041 29.6424 25.6816 29.389 25.3817 29.41C24.6306 29.4011 23.8795 29.4031 23.1284 29.409C22.8664 29.387 22.5939 29.5735 22.5795 29.841C22.4251 33.9016 26.1545 35.6718 29.6533 36.0615C31.6523 36.252 33.6951 36.2411 35.6635 35.8121C37.1432 35.4752 38.6269 34.8548 39.6455 33.7151C40.9016 32.33 41.1485 30.2678 40.5852 28.5425C40.1546 27.2551 38.9239 26.4293 37.6658 26.0045C35.9549 25.4178 33.9273 25.1025 32.3777 24.9549C30.1254 24.7404 27.4489 24.828 26.8114 23.348C26.5571 22.573 26.7735 21.6108 27.4856 21.1341C29.37 19.856 33.205 20.0257 35.1564 20.9805C36.0524 21.4292 36.5717 22.3508 36.786 23.2811C36.8257 23.5544 37.0096 23.8396 37.3259 23.8276C38.0719 23.8426 38.8179 23.8316 39.5637 23.8326C39.8199 23.8505 40.1005 23.7059 40.1505 23.4436C40.1188 21.4991 39.1259 19.5086 37.335 18.5603Z" fill="#8CC84B"/>
</svg>
