<svg width="51" height="51" viewBox="0 0 51 51" fill="none" xmlns="http://www.w3.org/2000/svg">
<g clip-path="url(#clip0_2_82)">
<path d="M49.8022 30.4405C49.5115 29.56 48.75 28.9468 47.7651 28.7996C47.3007 28.7303 46.7689 28.7599 46.1395 28.8896C45.0426 29.1159 44.2287 29.2021 43.6348 29.2188C45.8767 25.4337 47.6996 21.1174 48.749 17.0544C50.446 10.4845 49.5392 7.49148 48.4795 6.13769C45.6751 2.55436 41.5837 0.629358 36.6477 0.570457C34.0145 0.53826 31.703 1.05815 30.4971 1.43201C29.3744 1.2339 28.1672 1.1233 26.9005 1.10284C24.5261 1.06496 22.4282 1.58258 20.6356 2.6464C19.6431 2.3108 18.0503 1.83769 16.2109 1.5358C11.8848 0.82557 8.39806 1.37898 5.84768 3.18068C2.75942 5.36212 1.32779 9.15228 1.59257 14.4458C1.67666 16.1265 2.61681 21.2402 4.09711 26.0898C4.94787 28.8773 5.85507 31.192 6.79351 32.9705C8.12439 35.4922 9.54844 36.9773 11.1471 37.5106C12.0431 37.8091 13.6712 38.0182 15.3835 36.592C15.6005 36.8549 15.8901 37.1161 16.2744 37.3587C16.7625 37.6665 17.3592 37.918 17.9553 38.067C20.1032 38.604 22.1151 38.4697 23.8316 37.717C23.8422 38.0223 23.8503 38.314 23.8572 38.5659C23.8685 38.9744 23.8799 39.375 23.8948 39.7496C23.9965 42.2826 24.1689 44.2521 24.6795 45.6301C24.7075 45.7059 24.7452 45.8214 24.785 45.9439C25.0397 46.7239 25.4657 48.0295 26.5494 49.0521C27.6715 50.1114 29.0289 50.4362 30.2721 50.4362C30.8956 50.4362 31.4905 50.3544 32.0123 50.2426C33.8721 49.8439 35.9844 49.2367 37.5125 47.061C38.9571 45.0042 39.6594 41.9063 39.7865 37.025C39.803 36.8869 39.8181 36.7551 39.8327 36.6295L39.863 36.3716L40.2034 36.4015L40.2911 36.4074C42.1854 36.4938 44.5017 36.092 45.9242 35.4313C47.0482 34.9097 50.6503 33.008 49.8022 30.4405Z" fill="black"/>
<path d="M46.5632 30.9398C40.9306 32.1017 40.5433 30.1947 40.5433 30.1947C46.4903 21.3703 48.9765 10.1689 46.8312 7.42746C40.9782 -0.0507639 30.8466 3.48598 30.6774 3.57765L30.6231 3.58749C29.5102 3.35643 28.2649 3.21893 26.8651 3.19602C24.3166 3.15435 22.3833 3.8642 20.9163 4.9767C20.9163 4.9767 2.84239 -2.46914 3.68311 14.3411C3.8619 17.9172 8.80887 41.4004 14.7092 34.3074C16.8659 31.7136 18.9498 29.5206 18.9498 29.5206C19.9846 30.2081 21.2236 30.5589 22.5225 30.4329L22.6235 30.3473C22.592 30.6693 22.6064 30.9843 22.6638 31.3572C21.1437 33.0555 21.5905 33.3536 18.5519 33.9792C15.477 34.6129 17.2833 35.7409 18.4627 36.036C19.8924 36.3934 23.2 36.8998 25.4348 33.7712L25.3458 34.1282C25.9413 34.6053 26.3594 37.2311 26.2894 39.6115C26.2193 41.9919 26.1725 43.6261 26.6416 44.9026C27.1111 46.1792 27.5788 49.0513 31.5734 48.1954C34.9111 47.4801 36.6409 45.6265 36.8816 42.5345C37.0522 40.3364 37.4388 40.6614 37.463 38.696L37.7731 37.7657C38.1305 34.786 37.8299 33.8246 39.8861 34.2718L40.3861 34.3157C41.8994 34.3845 43.8805 34.0722 45.0431 33.5318C47.5466 32.3701 49.0314 30.4301 46.5628 30.9398H46.5632Z" fill="#336791"/>
<path d="M21.9742 15.9403C21.4666 15.8697 21.007 15.935 20.7744 16.1112C20.6437 16.2102 20.6032 16.325 20.5922 16.404C20.563 16.6133 20.7096 16.8447 20.7998 16.964C21.0547 17.3019 21.4271 17.5341 21.7956 17.5852C21.849 17.5928 21.9023 17.5962 21.9551 17.5962C22.5697 17.5962 23.1286 17.1176 23.1778 16.7644C23.2394 16.322 22.5971 16.0269 21.9742 15.9403ZM38.7894 15.9544C38.7409 15.6076 38.1238 15.5087 37.5382 15.5901C36.9534 15.6716 36.3863 15.9356 36.4337 16.2831C36.4716 16.5534 36.9596 17.0148 37.5373 17.0148C37.5862 17.0148 37.6354 17.0115 37.685 17.0045C38.0706 16.9511 38.3536 16.7062 38.488 16.5651C38.6926 16.35 38.8112 16.1102 38.7894 15.9544Z" fill="white"/>
<path d="M48.4375 30.8078C48.2227 30.1583 47.5314 29.9494 46.3829 30.1866C42.9729 30.8903 41.7517 30.4028 41.3507 30.1076C44.0013 26.0697 46.1818 21.1886 47.3581 16.6347C47.9153 14.4775 48.2231 12.4741 48.2483 10.8411C48.2761 9.04887 47.9708 7.73182 47.3413 6.92728C44.803 3.68391 41.0776 1.94413 36.5682 1.89641C33.468 1.86156 30.8487 2.65493 30.3409 2.87804C29.2716 2.61213 28.1058 2.44887 26.8367 2.42804C24.5094 2.39035 22.4977 2.94754 20.8322 4.08334C20.1087 3.81402 18.239 3.17216 15.9524 2.80379C11.9994 2.16743 8.85812 2.64963 6.61646 4.2377C3.94165 6.13277 2.7068 9.52027 2.946 14.3059C3.02649 15.9159 3.94392 20.8689 5.39165 25.6123C7.29733 31.8555 9.36892 35.3898 11.5485 36.1169C11.8036 36.2019 12.0977 36.2614 12.4221 36.2614C13.2172 36.2614 14.192 35.903 15.2062 34.6837C16.4433 33.1997 17.7229 31.7518 19.0435 30.3417C19.9004 30.8015 20.8416 31.0583 21.8043 31.0841C21.8062 31.1093 21.8087 31.1345 21.811 31.1595C21.6452 31.3571 21.483 31.5576 21.3242 31.7608C20.6572 32.6076 20.5184 32.7839 18.3712 33.226C17.7604 33.3521 16.1382 33.6864 16.1144 34.8235C16.0886 36.0659 18.032 36.5877 18.2534 36.643C19.025 36.8362 19.7683 36.9314 20.4773 36.9314C22.2013 36.9314 23.7185 36.3648 24.931 35.2684C24.8937 39.6975 25.0784 44.0619 25.6102 45.3917C26.0458 46.4803 27.1098 49.1407 30.4708 49.1405C30.964 49.1405 31.5068 49.0831 32.104 48.9551C35.6117 48.2032 37.135 46.6528 37.7242 43.2349C38.0396 41.4081 38.5807 37.0462 38.8352 34.7064C39.3723 34.8741 40.0638 34.9508 40.8113 34.9506C42.3704 34.9506 44.1695 34.6193 45.2977 34.0956C46.5651 33.507 48.8523 32.0627 48.4375 30.8078ZM40.0841 14.9972C40.0725 15.6879 39.9774 16.315 39.8767 16.9695C39.7682 17.6735 39.656 18.4013 39.6278 19.2849C39.6 20.1447 39.7074 21.0386 39.8112 21.9032C40.021 23.6494 40.2363 25.4472 39.4028 27.221C39.2644 26.9757 39.141 26.7221 39.0335 26.4617C38.9299 26.2106 38.7049 25.8072 38.3933 25.2489C37.1814 23.0754 34.3433 17.9856 35.7962 15.9087C36.229 15.2905 37.3273 14.6549 40.0841 14.9972ZM36.7424 3.29508C40.7829 3.38429 43.9791 4.89584 46.242 7.78751C47.9776 10.0055 46.0665 20.0977 40.5337 28.8044C40.4781 28.7336 40.4221 28.6631 40.3659 28.5928L40.2958 28.5053C41.7255 26.1441 41.446 23.808 41.1971 21.7367C41.0949 20.8867 40.9983 20.0839 41.0229 19.3297C41.0483 18.5305 41.154 17.8449 41.2562 17.182C41.3818 16.3652 41.5096 15.5199 41.4744 14.5235C41.5007 14.4189 41.5113 14.2955 41.4975 14.1489C41.4076 13.1934 40.3166 10.3337 38.0932 7.74546C36.8769 6.32974 35.1032 4.74546 32.6814 3.6769C33.7231 3.46099 35.1475 3.25966 36.7424 3.29508ZM14.1329 33.7913C13.0155 35.1349 12.2439 34.8773 11.9901 34.7928C10.3367 34.2413 8.41816 30.7466 6.72668 25.2049C5.26305 20.4099 4.40774 15.5881 4.33994 14.236C4.1263 9.95985 5.16286 6.97974 7.421 5.37823C11.096 2.77216 17.138 4.33201 19.5659 5.12311C19.531 5.15758 19.4947 5.18978 19.4602 5.22482C15.4761 9.2483 15.5706 16.1225 15.5805 16.5428C15.5801 16.7049 15.5937 16.9345 15.6123 17.2502C15.6809 18.4064 15.8085 20.5583 15.4676 22.9953C15.1509 25.2599 15.849 27.4763 17.3826 29.0765C17.5399 29.2404 17.7054 29.3964 17.8782 29.5439C17.1956 30.275 15.7121 31.8917 14.1329 33.7913ZM18.3903 28.1108C17.1543 26.821 16.593 25.0271 16.85 23.1885C17.2098 20.6142 17.0771 18.3722 17.0057 17.1676C16.9956 16.9991 16.9867 16.8513 16.9816 16.7349C17.5636 16.2188 20.2608 14.7737 22.1843 15.2144C23.0619 15.4153 23.5968 16.0131 23.8191 17.0411C24.9699 22.3636 23.9714 24.582 23.1691 26.3648C23.0038 26.732 22.8475 27.0792 22.7142 27.4383L22.6108 27.7159C22.349 28.4178 22.1055 29.0705 21.9545 29.6902C20.6405 29.6864 19.3623 29.125 18.3903 28.1106V28.1108ZM18.592 35.2888C18.2083 35.193 17.8632 35.0265 17.6608 34.8885C17.8299 34.8089 18.1309 34.7006 18.6528 34.593C21.1788 34.0731 21.5689 33.7061 22.4208 32.6244C22.6161 32.3763 22.8375 32.0953 23.1441 31.7528L23.1445 31.7525C23.6011 31.2411 23.81 31.3278 24.1888 31.485C24.4958 31.6119 24.7949 31.9968 24.9161 32.4203C24.9735 32.6203 25.0379 32.9998 24.8271 33.2953C23.0475 35.7869 20.4543 35.7549 18.592 35.2888ZM31.8115 47.5903C28.7214 48.2525 27.6273 46.6758 26.9062 44.8733C26.4409 43.7097 26.2121 38.4623 26.3744 32.6674C26.3765 32.5903 26.3655 32.5159 26.3443 32.4458C26.3253 32.3075 26.2965 32.1706 26.2579 32.0364C26.0166 31.1932 25.4286 30.4879 24.7231 30.1955C24.4428 30.0794 23.9284 29.8663 23.3102 30.0244C23.442 29.4813 23.6706 28.8678 23.9185 28.2036L24.0225 27.9242C24.1396 27.6093 24.2865 27.283 24.4418 26.9375C25.2814 25.0724 26.4312 22.5176 25.1833 16.7462C24.7159 14.5845 23.1549 13.5288 20.7886 13.7741C19.3701 13.9208 18.0721 14.4932 17.4248 14.8214C17.2856 14.8919 17.1583 14.96 17.0394 15.0263C17.2201 12.8483 17.9026 8.77785 20.456 6.20247C22.0638 4.58126 24.2049 3.7805 26.8136 3.82368C31.9538 3.90777 35.25 6.54565 37.1102 8.74395C38.7132 10.6381 39.5812 12.5462 39.9276 13.5754C37.3225 13.3104 35.5507 13.8246 34.6526 15.1087C32.6987 17.9019 35.7216 23.3231 37.1744 25.9286C37.4409 26.4061 37.6708 26.8188 37.7432 26.9941C38.2163 28.1407 38.8288 28.9063 39.2759 29.465C39.413 29.6362 39.546 29.8023 39.6471 29.9474C38.8581 30.1748 37.4409 30.7004 37.5701 33.3275C37.4659 34.6456 36.7252 40.8172 36.3488 42.9977C35.8521 45.8784 34.792 46.9513 31.8115 47.5905V47.5903ZM44.71 32.8297C43.9032 33.2042 42.553 33.485 41.2704 33.5455C39.8538 33.6117 39.1326 33.3867 38.9629 33.2483C38.8833 31.6112 39.4926 31.4402 40.1375 31.2591C40.2388 31.2307 40.3377 31.2028 40.4331 31.1695C40.4924 31.2178 40.5574 31.2657 40.6286 31.3127C41.7672 32.0642 43.7981 32.1453 46.6653 31.5534L46.6968 31.5472C46.31 31.9087 45.6483 32.3939 44.71 32.8297Z" fill="white"/>
</g>
<defs>
<clipPath id="clip0_2_82">
<rect width="50" height="50" fill="white" transform="translate(0.747681 0.5)"/>
</clipPath>
</defs>
</svg>
