<svg width="46" height="45" viewBox="0 0 46 45" fill="none" xmlns="http://www.w3.org/2000/svg">
<g clip-path="url(#clip0_11_8)">
<path d="M41.5834 34.1882L26.151 1.41531C25.7604 0.593617 24.9507 0.0522426 24.0421 0.00522356C23.1314 -0.0557949 22.2623 0.394732 21.7873 1.17412L5.04918 28.2843C4.52955 29.12 4.54049 30.1809 5.07723 31.0057L13.2606 43.6785C13.8965 44.6555 15.0992 45.0978 16.2165 44.7655L39.9647 37.7409C40.6882 37.5294 41.2844 37.0146 41.5991 36.3297C41.9096 35.6481 41.9043 34.8644 41.5845 34.1871L41.5834 34.1882ZM38.1283 35.5938L17.9766 41.5527C17.3619 41.7356 16.7718 41.2027 16.8997 40.5824L24.0993 6.10885C24.2339 5.46382 25.1246 5.36174 25.4062 5.95853L38.7341 34.2611C38.8533 34.5164 38.8548 34.811 38.738 35.0674C38.6213 35.3238 38.398 35.5162 38.1272 35.5938H38.1283Z" fill="white"/>
</g>
<defs>
<clipPath id="clip0_11_8">
<rect width="45" height="45" fill="white" transform="translate(0.747681)"/>
</clipPath>
</defs>
</svg>
