<svg width="50" height="51" viewBox="0 0 50 51" fill="none" xmlns="http://www.w3.org/2000/svg">
<path d="M26.8019 27.6973H33.9418L28.0066 21.8379H20.5519V28.9164L26.8019 35.0891V27.6973Z" fill="#EE7913"/>
<path d="M49.4582 43.1004L36.9094 30.8223H29.9269V38.0129L41.8527 49.9629H49.4582V43.1004Z" fill="url(#paint0_linear_3_110)"/>
<path d="M29.9269 30.8223H36.9094L33.9418 27.6973H26.8019V35.0891L29.9269 38.0129V30.8223Z" fill="#F0E64A"/>
<path d="M26.923 40.1687C26.468 40.2633 26.232 40.2301 25.093 40.2301C16.9422 40.2301 10.0102 33.5277 10.0102 24.8371C10.0102 16.1465 16.866 9.59218 25.093 9.59218C33.3199 9.59218 39.8715 16.1469 39.8715 24.8371C39.8715 26.2508 39.6953 27.6102 39.3699 28.8988L46.9141 36.4422C48.859 33.0336 49.9473 29.0715 49.9473 24.7793C49.9473 11.3852 39.2586 1.35625 24.941 1.35625C10.6887 1.35586 0 11.3187 0 24.7789C0 38.3043 10.6887 48.4656 24.9406 48.4656C28.6191 48.4656 31.2176 47.8918 33.9414 46.9965L26.923 40.1687Z" fill="url(#paint1_linear_3_110)"/>
<path opacity="0.15" d="M20.7355 21.8379H28.0066L49.4582 43.1004V49.9629L20.7355 21.8379Z" fill="white"/>
<defs>
<linearGradient id="paint0_linear_3_110" x1="39.8457" y1="50.6234" x2="39.1126" y2="2.43266" gradientUnits="userSpaceOnUse">
<stop stop-color="#589632"/>
<stop offset="1" stop-color="#93B023"/>
</linearGradient>
<linearGradient id="paint1_linear_3_110" x1="25.3681" y1="50.7308" x2="24.6378" y2="2.71574" gradientUnits="userSpaceOnUse">
<stop stop-color="#589632"/>
<stop offset="1" stop-color="#93B023"/>
</linearGradient>
</defs>
</svg>
