<svg width="55" height="55" viewBox="0 0 55 55" fill="none" xmlns="http://www.w3.org/2000/svg">
<path d="M32.1044 27.4586C32.1044 24.9932 30.0431 22.9943 27.5 22.9943C24.9573 22.9943 22.8956 24.9932 22.8956 27.4586C22.8956 29.9243 24.9573 31.923 27.5 31.923C30.0431 31.923 32.1044 29.9243 32.1044 27.4586Z" fill="#53C1DE"/>
<path fill-rule="evenodd" clip-rule="evenodd" d="M42.4538 19.1704C43.4261 15.3395 44.6483 8.23535 40.3397 5.82684C36.0513 3.42882 30.4707 8.02386 27.5239 10.782C24.5857 8.05134 18.8483 3.47595 14.5434 5.89211C10.2567 8.29817 11.5786 15.2845 12.5725 19.1395C8.57366 20.2407 1.71875 22.6126 1.71875 27.4586C1.71875 32.2908 8.56652 34.8714 12.5417 35.9715C11.5441 39.8478 10.2884 46.7344 14.5806 49.1351C18.9016 51.5508 24.6211 47.0843 27.5952 44.296C30.5609 47.0704 36.0879 51.5661 40.3772 49.1587C44.6799 46.7436 43.5593 39.7347 42.5654 35.8574C46.4188 34.7548 53.2812 32.2305 53.2812 27.4586C53.2812 22.6591 46.3896 20.268 42.4538 19.1704ZM41.9653 33.8027C41.3127 31.7996 40.4319 29.6696 39.3544 27.4692C40.3829 25.3208 41.2295 23.2182 41.8639 21.2281C44.7492 22.0392 51.0787 23.8929 51.0787 27.4586C51.0787 31.0578 45.0048 32.929 41.9653 33.8027ZM39.2734 47.3103C36.0731 49.1064 31.3192 44.8071 29.129 42.764C30.5821 41.2232 32.0341 39.4319 33.4512 37.4428C35.944 37.2285 38.2989 36.8778 40.4346 36.3992C41.1342 39.1418 42.4878 45.5061 39.2734 47.3103ZM15.6812 47.2847C12.4806 45.4953 13.9435 39.3501 14.6774 36.4947C16.7893 36.9478 19.1273 37.2737 21.626 37.4701C23.0524 39.4164 24.5465 41.2055 26.0521 42.7723C24.1919 44.517 18.8968 49.0823 15.6812 47.2847ZM3.92131 27.4586C3.92131 23.8459 10.2129 22.0057 13.164 21.1967C13.8093 23.2315 14.6557 25.3591 15.6771 27.5107C14.6425 29.6942 13.784 31.8555 13.1327 33.9144C10.3188 33.1334 3.92131 31.0735 3.92131 27.4586ZM15.647 7.74046C18.8607 5.93684 23.8471 10.3294 25.9805 12.3065C24.4826 13.8661 23.0022 15.6417 21.588 17.5768C19.163 17.7947 16.8416 18.1447 14.7075 18.6135C13.9068 15.5043 12.4367 9.54214 15.647 7.74046ZM35.0269 19.8981C36.6721 20.0994 38.2484 20.3672 39.7284 20.6948C39.2841 22.0756 38.7303 23.5195 38.078 24.9997C37.1326 23.2604 36.1176 21.5559 35.0269 19.8981ZM27.5246 13.8327C28.5405 14.8998 29.558 16.0915 30.559 17.3843C28.5287 17.2911 26.495 17.2908 24.4647 17.3829C25.4665 16.1021 26.4928 14.9122 27.5246 13.8327ZM16.9409 24.9982C16.2994 23.5232 15.7506 22.0729 15.3024 20.6723C16.7736 20.3531 18.3425 20.0922 19.977 19.8942C18.8832 21.5483 17.87 23.2521 16.9409 24.9982ZM20.024 35.1754C18.3355 34.9927 16.7428 34.745 15.2721 34.4346C15.7273 33.0095 16.2882 31.5279 16.9434 30.0211C17.8853 31.7854 18.914 33.5057 20.024 35.1754ZM27.5856 41.2354C26.5416 40.1431 25.5002 38.935 24.4832 37.6356C26.5251 37.7133 28.571 37.7135 30.6127 37.6252C29.6086 38.9482 28.5947 40.1581 27.5856 41.2354ZM38.099 29.9444C38.7882 31.4676 39.3692 32.941 39.8307 34.3422C38.3355 34.673 36.7214 34.9394 35.0207 35.1373C36.1195 33.4481 37.1506 31.7171 38.099 29.9444ZM32.2219 35.3961C29.0986 35.6125 25.9559 35.6101 22.8315 35.4138C21.0562 32.8995 19.4758 30.2552 18.1117 27.51C19.4693 24.7705 21.0382 22.1313 22.8051 19.6209C25.9316 19.3918 29.0775 19.3911 32.204 19.6223C33.9558 22.1325 35.5223 24.7648 36.9114 27.4795C35.5388 30.2177 33.9616 32.8622 32.2219 35.3961ZM39.2396 7.67697C42.4542 9.47468 41.0233 15.8594 40.321 18.6357C38.1819 18.157 35.8588 17.8009 33.4268 17.5795C32.0098 15.6235 30.5418 13.8448 29.0682 12.3054C31.2288 10.2857 36.0561 5.89684 39.2396 7.67697Z" fill="#53C1DE"/>
</svg>
