<svg width="44" height="43" viewBox="0 0 44 43" fill="none" xmlns="http://www.w3.org/2000/svg">
<g clip-path="url(#clip0_2_87)">
<path d="M25.88 41.9665C24.752 43.3368 22.4647 42.586 22.4376 40.8363L22.0401 15.2451H39.8791C43.1102 15.2451 44.9122 18.845 42.9031 21.2859L25.88 41.9665Z" fill="url(#paint0_linear_2_87)"/>
<path d="M25.88 41.9665C24.752 43.3368 22.4647 42.586 22.4376 40.8363L22.0401 15.2451H39.8791C43.1102 15.2451 44.9122 18.845 42.9031 21.2859L25.88 41.9665Z" fill="url(#paint1_linear_2_87)" fill-opacity="0.2"/>
<path d="M18.625 0.788098C19.7531 -0.582346 22.0404 0.168558 22.0675 1.91826L22.2417 27.5094H4.62599C1.39478 27.5094 -0.407327 23.9096 1.60194 21.4686L18.625 0.788098Z" fill="#3ECF8E"/>
</g>
<defs>
<linearGradient id="paint0_linear_2_87" x1="22.0401" y1="20.9193" x2="37.7195" y2="27.7365" gradientUnits="userSpaceOnUse">
<stop stop-color="#249361"/>
<stop offset="1" stop-color="#3ECF8E"/>
</linearGradient>
<linearGradient id="paint1_linear_2_87" x1="15.011" y1="11.6359" x2="21.8433" y2="24.9693" gradientUnits="userSpaceOnUse">
<stop/>
<stop offset="1" stop-opacity="0"/>
</linearGradient>
<clipPath id="clip0_2_87">
<rect width="43" height="43" fill="white" transform="translate(0.747681)"/>
</clipPath>
</defs>
</svg>
