<svg width="50" height="51" viewBox="0 0 50 51" fill="none" xmlns="http://www.w3.org/2000/svg">
<path d="M14.0625 21.9062C15.5208 16.0729 19.1667 13.1562 25 13.1562C33.75 13.1562 34.8438 19.7187 39.2188 20.8125C42.1354 21.5417 44.6875 20.4479 46.875 17.5312C45.4167 23.3646 41.7708 26.2812 35.9375 26.2812C27.1875 26.2812 26.0937 19.7187 21.7187 18.625C18.8021 17.8958 16.25 18.9896 14.0625 21.9062ZM3.125 35.0312C4.58333 29.1979 8.22917 26.2812 14.0625 26.2812C22.8125 26.2812 23.9063 32.8437 28.2813 33.9375C31.1979 34.6667 33.75 33.5729 35.9375 30.6562C34.4792 36.4896 30.8333 39.4062 25 39.4062C16.25 39.4062 15.1563 32.8437 10.7813 31.75C7.86458 31.0208 5.3125 32.1146 3.125 35.0312Z" fill="#44A8B3"/>
</svg>
