<svg width="45" height="45" viewBox="0 0 45 45" fill="none" xmlns="http://www.w3.org/2000/svg">
<g clip-path="url(#clip0_2_23)">
<path d="M0 22.5V45H22.5H45V22.5V0H22.5H0V22.5Z" fill="#007ACC"/>
<path d="M9.95118 22.6493L9.93689 24.4921L12.8655 24.4921H15.794V32.8135L15.794 41.135H17.8655H19.9369V32.8135V24.4921H22.8655H25.794V22.685C25.794 21.685 25.7726 20.8493 25.744 20.8278C25.7226 20.7993 22.1583 20.785 17.8369 20.7921L9.97261 20.8135L9.95118 22.6493Z" fill="white"/>
<path d="M36.3105 20.7612C37.4534 21.047 38.3248 21.5541 39.1248 22.3827C39.5391 22.8255 40.1534 23.6327 40.2034 23.8255C40.2177 23.8827 38.2605 25.197 37.0748 25.9327C37.032 25.9612 36.8605 25.7755 36.6677 25.4898C36.0891 24.647 35.482 24.2827 34.5534 24.2184C33.1891 24.1255 32.3105 24.8398 32.3177 26.0327C32.3177 26.3827 32.3677 26.5898 32.5105 26.8755C32.8105 27.497 33.3677 27.8684 35.1177 28.6255C38.3391 30.0112 39.7177 30.9255 40.5748 32.2255C41.532 33.6755 41.7462 35.9898 41.0962 37.7112C40.382 39.5827 38.6105 40.8541 36.1177 41.2755C35.3462 41.4112 33.5177 41.3898 32.6891 41.2398C30.882 40.9184 29.1677 40.0255 28.1105 38.8541C27.6963 38.397 26.8891 37.2041 26.9391 37.1184C26.9605 37.0898 27.1463 36.9755 27.3534 36.8541C27.5534 36.7398 28.3105 36.3041 29.0248 35.8898L30.3177 35.1398L30.5891 35.5398C30.9677 36.1184 31.7963 36.9112 32.2963 37.1755C33.732 37.9327 35.7034 37.8255 36.6748 36.9541C37.0891 36.5755 37.2605 36.1827 37.2605 35.6041C37.2605 35.0827 37.1963 34.8541 36.9248 34.4612C36.5748 33.9612 35.8605 33.5398 33.832 32.6612C31.5105 31.6612 30.5105 31.0398 29.5963 30.0541C29.0677 29.4827 28.5677 28.5684 28.3605 27.8041C28.1891 27.1684 28.1463 25.5755 28.282 24.9327C28.7605 22.6898 30.4534 21.1255 32.8963 20.6612C33.6891 20.5112 35.532 20.5684 36.3105 20.7612Z" fill="white"/>
</g>
<defs>
<clipPath id="clip0_2_23">
<rect width="45" height="45" fill="white"/>
</clipPath>
</defs>
</svg>
